# xmcd
#
# Track frame offsets: 
#        150
#        21870
#        33620
#
# Disc length: 670 seconds
#
# Revision: 0
# Processed by: cddbd v1.5.1PL2 Copyright (c) Steve Scherf et al.
# Submitted via: ExactAudioCopy v0.95b4
#
DISCID=1e029c03
DTITLE=Pinky and Perky - Merry Christmas Everyone (UK Maxi-Single)
DYEAR=2000
DGENRE=Christmas/Holiday
TTITLE0=Last Christmas
TTITLE1=Merry Christmas Everyone
TTITLE2=Santa Claus Is Coming To Town
EXTD=
EXTT0=
EXTT1=
EXTT2=
PLAYORDER=
